# xmcd
#
# Track frame offsets:
#	188
#	22038
#	44630
#
# Disc length: 840 seconds
#
# Revision: 0
# Processed by: cddbd v1.5.2PL0 Copyright (c) Steve Scherf et al.
# Submitted via: audiograbber 1.83.01
#
DISCID=23034603
DTITLE=Western Union - L.I.E.B.E.
DYEAR=1900
DGENRE=Country
TTITLE0=L.I.E.B.E.
TTITLE1=Du, das mag ich
TTITLE2=Ich seh die Welt nur durch die groﬂe Winschutzscheibe
EXTD=
EXTT0=
EXTT1=
EXTT2=
PLAYORDER=
